<svg width="555.3874999999999px" height="165.2px" xmlns="http://www.w3.org/2000/svg" viewBox="-27.693749999999966 -7.599999999999994 555.3874999999999 165.2" style="background: rgb(239, 239, 239);" preserveAspectRatio="xMidYMid"><defs><filter id="editing-vintage" x="-100%" y="-100%" width="300%" height="300%"><feConvolveMatrix in="SourceGraphic" result="extrude" order="9,9" divisor="1" kernelMatrix="1,0,0,0,0,0,0,0,0,0,1,0,0,0,0,0,0,0,0,0,1,0,0,0,0,0,0,0,0,0,1,0,0,0,0,0,0,0,0,0,1,0,0,0,0,0,0,0,0,0,1,0,0,0,0,0,0,0,0,0,1,0,0,0,0,0,0,0,0,0,1,0,0,0,0,0,0,0,0,0,1"> </feConvolveMatrix><feFlood flood-color="#900" result="flood-extrude"></feFlood><feComposite operator="in" in="flood-extrude" in2="extrude" result="extrude-color"></feComposite><feOffset dx="5" dy="5" in="extrude-color" result="extrude-offset"></feOffset><feColorMatrix in="SourceGraphic" result="stroke" type="matrix" values="0 0 0 0 0 0 0 0 0 0 0 0 0 0 0 0 1 0 0 0 "></feColorMatrix><feColorMatrix in="SourceGraphic" result="fill" type="matrix" values="0 0 0 0 0 0 0 0 0 0 0 0 0 0 0 1 0 0 1 0 "></feColorMatrix><feConvolveMatrix in="stroke" result="inner-shadow" order="5,5" divisor="1" kernelMatrix="1 0 0 0 0 0 1 0 0 0 0 0 1 0 0 0 0 0 1 0 0 0 0 0 1 "></feConvolveMatrix><feOffset dx="1" dy="1" in="inner-shadow" result="offset"></feOffset><feComposite operator="in" in="offset" in2="SourceAlpha" result="comp"></feComposite><feFlood flood-color="#000" result="flood3"></feFlood><feComposite operator="in" in="flood3" in2="comp" result="comp2"></feComposite><feColorMatrix in="comp2" result="comp3" type="matrix" values="1 0 0 0 0 0 1 0 0 0 0 0 1 0 0 0 0 0 0.5 0 "></feColorMatrix><feFlood flood-color="#f00" result="flood1"></feFlood><feComposite operator="in" in="flood1" in2="fill" result="fill2"></feComposite><feFlood flood-color="#fff" result="flood2"></feFlood><feComposite operator="in" in="flood2" in2="stroke" result="stroke2"></feComposite><feMerge result="obj"><feMergeNode in="extrude-offset"></feMergeNode><feMergeNode in="fill2"></feMergeNode><feMergeNode in="comp3"></feMergeNode></feMerge><feConvolveMatrix in="SourceAlpha" result="shadow" order="9,9" divisor="1" kernelMatrix="1,0,0,0,0,0,0,0,0,0,1,0,0,0,0,0,0,0,0,0,1,0,0,0,0,0,0,0,0,0,1,0,0,0,0,0,0,0,0,0,1,0,0,0,0,0,0,0,0,0,1,0,0,0,0,0,0,0,0,0,1,0,0,0,0,0,0,0,0,0,1,0,0,0,0,0,0,0,0,0,1"></feConvolveMatrix><feOffset dx="15" dy="15" in="shadow" result="shadow-offset"></feOffset><feFlood flood-color="#444444" result="flood-shadow"></feFlood><feComposite operator="in" in="flood-shadow" in2="shadow-offset" result="shadow-color"></feComposite><feMerge><feMergeNode in="shadow-color"></feMergeNode><feMergeNode in="obj"></feMergeNode></feMerge></filter></defs><g transform="translate(-9,-9)"><g filter="url(#editing-vintage)"><g transform="translate(53.169986844062805, 105.88500213623047)"><path d="M59.75-60.68L59.75-41.81L46.33-41.81L46.33-47.89L41.34-47.89L41.34-12.79L46.80-12.79L46.80 0L14.04 0L14.04-12.79L19.50-12.79L19.50-47.89L14.51-47.89L14.51-41.81L1.09-41.81L1.09-60.68L59.75-60.68ZM80.03 1.09L80.03 1.09Q68.95 1.09 62.71-4.72L62.71-4.72L62.71-4.72Q56.47-10.53 56.47-21.68L56.47-21.68L56.47-21.68Q56.47-32.84 62.71-38.65L62.71-38.65L62.71-38.65Q68.95-44.46 80.03-44.46L80.03-44.46L80.03-44.46Q91.26-44.46 97.42-38.57L97.42-38.57L97.42-38.57Q103.58-32.68 103.58-21.68L103.58-21.68L103.58-21.68Q103.58-10.53 97.34-4.72L97.34-4.72L97.34-4.72Q91.10 1.09 80.03 1.09L80.03 1.09ZM80.03-12.79L80.03-12.79Q82.29-12.79 83.42-14.00L83.42-14.00L83.42-14.00Q84.55-15.21 84.55-17.78L84.55-17.78L84.55-25.58L84.55-25.58Q84.55-28.16 83.42-29.37L83.42-29.37L83.42-29.37Q82.29-30.58 80.03-30.58L80.03-30.58L80.03-30.58Q77.77-30.58 76.64-29.37L76.64-29.37L76.64-29.37Q75.50-28.16 75.50-25.58L75.50-25.58L75.50-17.78L75.50-17.78Q75.50-15.21 76.64-14.00L76.64-14.00L76.64-14.00Q77.77-12.79 80.03-12.79L80.03-12.79ZM106.24 0L106.24-12.79L110.14-12.79L110.14-47.81L106.24-47.81L106.24-60.68L137.90-60.68L137.90-60.68Q150.93-60.68 158.61-53.55L158.61-53.55L158.61-53.55Q166.30-46.41 166.30-30.34L166.30-30.34L166.30-30.34Q166.30-14.27 158.61-7.14L158.61-7.14L158.61-7.14Q150.93 0 137.90 0L137.90 0L106.24 0ZM131.98-12.79L136.50-12.79L136.50-12.79Q139.15-12.79 140.48-14.20L140.48-14.20L140.48-14.20Q141.80-15.60 141.80-18.56L141.80-18.56L141.80-42.12L141.80-42.12Q141.80-47.89 136.50-47.89L136.50-47.89L131.98-47.89L131.98-12.79ZM192.04 1.09L192.04 1.09Q180.96 1.09 174.72-4.72L174.72-4.72L174.72-4.72Q168.48-10.53 168.48-21.68L168.48-21.68L168.48-21.68Q168.48-32.84 174.72-38.65L174.72-38.65L174.72-38.65Q180.96-44.46 192.04-44.46L192.04-44.46L192.04-44.46Q203.27-44.46 209.43-38.57L209.43-38.57L209.43-38.57Q215.59-32.68 215.59-21.68L215.59-21.68L215.59-21.68Q215.59-10.53 209.35-4.72L209.35-4.72L209.35-4.72Q203.11 1.09 192.04 1.09L192.04 1.09ZM192.04-12.79L192.04-12.79Q194.30-12.79 195.43-14.00L195.43-14.00L195.43-14.00Q196.56-15.21 196.56-17.78L196.56-17.78L196.56-25.58L196.56-25.58Q196.56-28.16 195.43-29.37L195.43-29.37L195.43-29.37Q194.30-30.58 192.04-30.58L192.04-30.58L192.04-30.58Q189.77-30.58 188.64-29.37L188.64-29.37L188.64-29.37Q187.51-28.16 187.51-25.58L187.51-25.58L187.51-17.78L187.51-17.78Q187.51-15.21 188.64-14.00L188.64-14.00L188.64-14.00Q189.77-12.79 192.04-12.79L192.04-12.79ZM289.93 0L241.64 0L241.64-12.79L245.54-12.79L245.54-47.89L241.64-47.89L241.64-60.68L274.56-60.68L274.56-47.89L267.38-47.89L267.38-12.79L274.40-12.79L274.40-19.97L289.93-19.97L289.93 0ZM312.08-47.66L296.17-47.66L296.17-60.68L312.08-60.68L312.08-47.66ZM317.23 0L292.42 0L292.42-12.79L295.85-12.79L295.85-30.58L292.42-30.58L292.42-43.37L313.79-43.37L313.79-12.79L317.23-12.79L317.23 0ZM338.36 1.09L338.36 1.09Q328.54 1.09 319.41-2.03L319.41-2.03L319.41-13.57L332.05-13.57L332.05-12.79L332.05-12.79Q332.05-9.05 336.80-9.05L336.80-9.05L336.80-9.05Q341.02-9.05 341.02-11.93L341.02-11.93L341.02-11.93Q341.02-13.49 339.81-14.27L339.81-14.27L339.81-14.27Q338.60-15.05 335.56-15.60L335.56-15.60L331.66-16.30L331.66-16.30Q319.41-18.49 319.41-30.19L319.41-30.19L319.41-30.19Q319.41-36.97 324.56-40.72L324.56-40.72L324.56-40.72Q329.71-44.46 338.44-44.46L338.44-44.46L338.44-44.46Q348.19-44.46 354.90-41.18L354.90-41.18L354.90-30.34L343.04-30.34L343.04-31.12L343.04-31.12Q343.04-32.68 341.99-33.50L341.99-33.50L341.99-33.50Q340.94-34.32 338.91-34.32L338.91-34.32L338.91-34.32Q335.01-34.32 335.01-31.82L335.01-31.82L335.01-31.82Q335.01-30.50 336.10-29.80L336.10-29.80L336.10-29.80Q337.19-29.09 340.08-28.47L340.08-28.47L344.53-27.61L344.53-27.61Q351.47-26.29 354.43-22.70L354.43-22.70L354.43-22.70Q357.40-19.11 357.40-13.49L357.40-13.49L357.40-13.49Q357.40-6.40 352.44-2.65L352.44-2.65L352.44-2.65Q347.49 1.09 338.36 1.09L338.36 1.09ZM379.16 1.09L379.16 1.09Q370.89 1.09 366.72-2.92L366.72-2.92L366.72-2.92Q362.54-6.94 362.54-16.46L362.54-16.46L362.54-30.58L359.11-30.58L359.11-43.37L359.11-43.37Q362.08-43.37 363.56-44.89L363.56-44.89L363.56-44.89Q365.04-46.41 365.04-49.06L365.04-49.06L365.04-52.57L381.58-52.57L381.58-43.37L392.11-43.37L392.11-30.58L381.58-30.58L381.58-17.78L381.58-17.78Q381.58-15.21 382.71-14.00L382.71-14.00L382.71-14.00Q383.84-12.79 386.10-12.79L386.10-12.79L386.10-12.79Q389.06-12.79 392.57-13.49L392.57-13.49L392.57-1.25L392.57-1.25Q390.39-0.39 386.69 0.35L386.69 0.35L386.69 0.35Q382.98 1.09 379.16 1.09L379.16 1.09Z" fill="#f00" stroke="#0f0" stroke-width="1.8"></path></g></g><g><g transform="translate(53.170021176338196, 105.88500213623047)"><path d="M59.75-60.68L59.75-41.81L46.33-41.81L46.33-47.89L41.34-47.89L41.34-12.79L46.80-12.79L46.80 0L14.04 0L14.04-12.79L19.50-12.79L19.50-47.89L14.51-47.89L14.51-41.81L1.09-41.81L1.09-60.68L59.75-60.68ZM80.03 1.09L80.03 1.09Q68.95 1.09 62.71-4.72L62.71-4.72L62.71-4.72Q56.47-10.53 56.47-21.68L56.47-21.68L56.47-21.68Q56.47-32.84 62.71-38.65L62.71-38.65L62.71-38.65Q68.95-44.46 80.03-44.46L80.03-44.46L80.03-44.46Q91.26-44.46 97.42-38.57L97.42-38.57L97.42-38.57Q103.58-32.68 103.58-21.68L103.58-21.68L103.58-21.68Q103.58-10.53 97.34-4.72L97.34-4.72L97.34-4.72Q91.10 1.09 80.03 1.09L80.03 1.09ZM80.03-12.79L80.03-12.79Q82.29-12.79 83.42-14.00L83.42-14.00L83.42-14.00Q84.55-15.21 84.55-17.78L84.55-17.78L84.55-25.58L84.55-25.58Q84.55-28.16 83.42-29.37L83.42-29.37L83.42-29.37Q82.29-30.58 80.03-30.58L80.03-30.58L80.03-30.58Q77.77-30.58 76.64-29.37L76.64-29.37L76.64-29.37Q75.50-28.16 75.50-25.58L75.50-25.58L75.50-17.78L75.50-17.78Q75.50-15.21 76.64-14.00L76.64-14.00L76.64-14.00Q77.77-12.79 80.03-12.79L80.03-12.79ZM106.24 0L106.24-12.79L110.14-12.79L110.14-47.81L106.24-47.81L106.24-60.68L137.90-60.68L137.90-60.68Q150.93-60.68 158.61-53.55L158.61-53.55L158.61-53.55Q166.30-46.41 166.30-30.34L166.30-30.34L166.30-30.34Q166.30-14.27 158.61-7.14L158.61-7.14L158.61-7.14Q150.93 0 137.90 0L137.90 0L106.24 0ZM131.98-12.79L136.50-12.79L136.50-12.79Q139.15-12.79 140.48-14.20L140.48-14.20L140.48-14.20Q141.80-15.60 141.80-18.56L141.80-18.56L141.80-42.12L141.80-42.12Q141.80-47.89 136.50-47.89L136.50-47.89L131.98-47.89L131.98-12.79ZM192.04 1.09L192.04 1.09Q180.96 1.09 174.72-4.72L174.72-4.72L174.72-4.72Q168.48-10.53 168.48-21.68L168.48-21.68L168.48-21.68Q168.48-32.84 174.72-38.65L174.72-38.65L174.72-38.65Q180.96-44.46 192.04-44.46L192.04-44.46L192.04-44.46Q203.27-44.46 209.43-38.57L209.43-38.57L209.43-38.57Q215.59-32.68 215.59-21.68L215.59-21.68L215.59-21.68Q215.59-10.53 209.35-4.72L209.35-4.72L209.35-4.72Q203.11 1.09 192.04 1.09L192.04 1.09ZM192.04-12.79L192.04-12.79Q194.30-12.79 195.43-14.00L195.43-14.00L195.43-14.00Q196.56-15.21 196.56-17.78L196.56-17.78L196.56-25.58L196.56-25.58Q196.56-28.16 195.43-29.37L195.43-29.37L195.43-29.37Q194.30-30.58 192.04-30.58L192.04-30.58L192.04-30.58Q189.77-30.58 188.64-29.37L188.64-29.37L188.64-29.37Q187.51-28.16 187.51-25.58L187.51-25.58L187.51-17.78L187.51-17.78Q187.51-15.21 188.64-14.00L188.64-14.00L188.64-14.00Q189.77-12.79 192.04-12.79L192.04-12.79ZM289.93 0L241.64 0L241.64-12.79L245.54-12.79L245.54-47.89L241.64-47.89L241.64-60.68L274.56-60.68L274.56-47.89L267.38-47.89L267.38-12.79L274.40-12.79L274.40-19.97L289.93-19.97L289.93 0ZM312.08-47.66L296.17-47.66L296.17-60.68L312.08-60.68L312.08-47.66ZM317.23 0L292.42 0L292.42-12.79L295.85-12.79L295.85-30.58L292.42-30.58L292.42-43.37L313.79-43.37L313.79-12.79L317.23-12.79L317.23 0ZM338.36 1.09L338.36 1.09Q328.54 1.09 319.41-2.03L319.41-2.03L319.41-13.57L332.05-13.57L332.05-12.79L332.05-12.79Q332.05-9.05 336.80-9.05L336.80-9.05L336.80-9.05Q341.02-9.05 341.02-11.93L341.02-11.93L341.02-11.93Q341.02-13.49 339.81-14.27L339.81-14.27L339.81-14.27Q338.60-15.05 335.56-15.60L335.56-15.60L331.66-16.30L331.66-16.30Q319.41-18.49 319.41-30.19L319.41-30.19L319.41-30.19Q319.41-36.97 324.56-40.72L324.56-40.72L324.56-40.72Q329.71-44.46 338.44-44.46L338.44-44.46L338.44-44.46Q348.19-44.46 354.90-41.18L354.90-41.18L354.90-30.34L343.04-30.34L343.04-31.12L343.04-31.12Q343.04-32.68 341.99-33.50L341.99-33.50L341.99-33.50Q340.94-34.32 338.91-34.32L338.91-34.32L338.91-34.32Q335.01-34.32 335.01-31.82L335.01-31.82L335.01-31.82Q335.01-30.50 336.10-29.80L336.10-29.80L336.10-29.80Q337.19-29.09 340.08-28.47L340.08-28.47L344.53-27.61L344.53-27.61Q351.47-26.29 354.43-22.70L354.43-22.70L354.43-22.70Q357.40-19.11 357.40-13.49L357.40-13.49L357.40-13.49Q357.40-6.40 352.44-2.65L352.44-2.65L352.44-2.65Q347.49 1.09 338.36 1.09L338.36 1.09ZM379.16 1.09L379.16 1.09Q370.89 1.09 366.72-2.92L366.72-2.92L366.72-2.92Q362.54-6.94 362.54-16.46L362.54-16.46L362.54-30.58L359.11-30.58L359.11-43.37L359.11-43.37Q362.08-43.37 363.56-44.89L363.56-44.89L363.56-44.89Q365.04-46.41 365.04-49.06L365.04-49.06L365.04-52.57L381.58-52.57L381.58-43.37L392.11-43.37L392.11-30.58L381.58-30.58L381.58-17.78L381.58-17.78Q381.58-15.21 382.71-14.00L382.71-14.00L382.71-14.00Q383.84-12.79 386.10-12.79L386.10-12.79L386.10-12.79Q389.06-12.79 392.57-13.49L392.57-13.49L392.57-1.25L392.57-1.25Q390.39-0.39 386.69 0.35L386.69 0.35L386.69 0.35Q382.98 1.09 379.16 1.09L379.16 1.09Z" fill="none" stroke="#000000" stroke-width="2.1"></path></g></g></g><style>text {
  font-size: 64px;
  font-family: Arial Black;
  dominant-baseline: central;
  text-anchor: middle;
}</style></svg>